<svg xmlns="http://www.w3.org/2000/svg" width="512" height="512" viewBox="0 0 512 512" version="1.1">
	<path d="M 196.757 15.249 C 191.948 23.637, 180.869 42.875, 172.136 58 L 156.259 85.500 107.070 86 L 57.882 86.500 49.807 100.500 C 45.366 108.200, 35.885 124.625, 28.739 137 C 21.593 149.375, 14.238 162.219, 12.395 165.543 L 9.044 171.586 21.125 192.543 C 27.770 204.069, 38.817 223.282, 45.675 235.238 L 58.143 256.976 52.225 267.238 C 48.970 272.882, 41.900 285.150, 36.513 294.500 C 20.818 321.742, 11.766 337.383, 10.717 339.072 C 9.745 340.637, 10.680 342.348, 44.537 401 C 48.823 408.425, 53.737 416.975, 55.457 420 L 58.585 425.500 108.196 425.759 L 157.806 426.019 161.280 419.759 C 164.193 414.510, 178.182 390.250, 190.424 369.215 C 192.116 366.308, 194.179 362.708, 195.009 361.215 C 195.839 359.722, 198.677 354.764, 201.316 350.198 L 206.114 341.896 202.307 335.221 C 200.213 331.550, 197.825 327.327, 197 325.838 C 193.055 318.713, 186.743 307.652, 181.970 299.500 C 179.072 294.550, 173.331 284.650, 169.212 277.500 C 165.094 270.350, 160.638 262.615, 159.311 260.312 L 156.898 256.124 168.328 236.312 C 174.615 225.415, 183.927 209.300, 189.022 200.500 C 194.117 191.700, 199.587 182.250, 201.179 179.500 C 202.770 176.750, 204.579 173.483, 205.200 172.241 L 206.330 169.981 255.279 170.241 L 304.229 170.500 311.964 184 C 316.218 191.425, 322.522 202.450, 325.973 208.500 C 333.690 222.030, 337.876 229.260, 346.389 243.762 C 350.025 249.957, 353 255.364, 353 255.778 C 353 256.193, 351.157 259.675, 348.905 263.516 C 346.654 267.357, 343.652 272.525, 342.236 275 C 340.819 277.475, 337.973 282.425, 335.910 286 C 333.847 289.575, 329.861 296.550, 327.051 301.500 C 324.242 306.450, 320.177 313.425, 318.018 317 C 315.859 320.575, 313.424 324.850, 312.608 326.500 C 311.791 328.150, 309.395 332.405, 307.282 335.956 L 303.442 342.413 310.063 353.956 C 313.705 360.305, 321.107 373.150, 326.512 382.500 C 331.917 391.850, 339.834 405.575, 344.105 413 L 351.871 426.500 401.542 426 L 451.213 425.500 461.918 407 C 467.805 396.825, 478.622 378.150, 485.955 365.500 C 493.288 352.850, 499.282 342.050, 499.277 341.500 C 499.271 340.950, 495.100 333.300, 490.009 324.500 C 476.175 300.589, 458.108 269.268, 454.358 262.694 L 451.045 256.888 453.421 253.194 C 454.727 251.162, 462.659 237.575, 471.047 223 C 479.435 208.425, 489.628 190.735, 493.698 183.690 L 501.098 170.879 477.387 129.690 C 464.346 107.035, 453.008 87.717, 452.192 86.759 C 450.824 85.156, 446.850 84.998, 401.759 84.759 L 352.811 84.500 328.565 42.500 L 304.319 0.500 254.909 0.249 L 205.500 -0.003 196.757 15.249 M 241.500 187.653 C 227.358 190.664, 215.832 196.987, 205.878 207.196 C 198.689 214.569, 193.558 223.220, 189.902 234.134 C 187.387 241.639, 187 244.291, 187 254.003 C 187 267.318, 188.581 274.380, 194.052 285.500 C 212.275 322.537, 260.800 334.559, 294.654 310.423 C 306.230 302.170, 314.476 291.143, 319.791 276.806 C 322.300 270.038, 322.497 268.395, 322.462 254.500 C 322.426 240.501, 322.234 238.999, 319.585 232 C 307.225 199.336, 274.343 180.661, 241.500 187.653" stroke="none" fill="black" fill-rule="evenodd"/>
</svg>